/* XPM */
static char *result[] = {
/* columns rows colors chars-per-pixel */
"16 16 10 1 ",
"  c #FFE500",
". c #F3EB27",
"X c #F3EB2E",
"o c #F3EB2F",
"O c #F4EE3F",
"+ c #7F3F98",
"@ c #804199",
"# c #81439A",
"$ c #8D55A3",
"% c None",
/* pixels */
"%%%%%%.O%.%%%%%%",
"%%%%%.%%%%.%%%%%",
"%%%%%%%%%%%%%%%%",
"%%%%.%%%%%%o%%%%",
"%%%%%%%%%%%%%%%%",
"%%%.%%%%%%%%.%%%",
"%%%X%%%%%%%%%%%%",
"%%%%%%%%%%%%%%%%",
"%+%%%%%%%%% %%+%",
"%%%.%%%%%%%%.%%%",
"%%+%%%%%%% %%+%%",
"%%+%%%%%%%%%$+%%",
"+%%++%%..%%+@%%+",
"%%+%%++%%++%%+%%",
"%%+%++++++++%+%%",
"%%%%++%%%%+#%%%%"
};
