/* XPM */
static char *result[] = {
/* columns rows colors chars-per-pixel */
"64 64 67 1 ",
"  c #FFE500",
". c #FFE507",
"X c #F3EB27",
"o c #F3EB28",
"O c #F3EB29",
"+ c #F3EB2A",
"@ c #F3EB2B",
"# c #F3EC2B",
"$ c #F3EB2C",
"% c #F3EB32",
"& c #F3EC32",
"* c #F4EC33",
"= c #F3ED36",
"- c #F4EC34",
"; c #F4ED35",
": c #F4ED36",
"> c #F4EC37",
", c #F4ED37",
"< c #F3ED38",
"1 c #F5ED3A",
"2 c #F4ED3B",
"3 c #F4ED3E",
"4 c #F4EE40",
"5 c #F3ED46",
"6 c #F4ED44",
"7 c #F5EE44",
"8 c #F4EF47",
"9 c #F5EE4C",
"0 c #7F3F98",
"q c #7F3E99",
"w c #804098",
"e c #804099",
"r c #804199",
"t c #814199",
"y c #81439A",
"u c #82449A",
"i c #82449B",
"p c #83449B",
"a c #83459B",
"s c #84479C",
"d c #84489C",
"f c #85489C",
"g c #85489D",
"h c #85499D",
"j c #86499D",
"k c #86489E",
"l c #874B9E",
"z c #874C9F",
"x c #874D9F",
"c c #894DA0",
"v c #884EA0",
"b c #894FA0",
"n c #8A4FA1",
"m c #8B4FA2",
"M c #8A50A1",
"N c #8A51A1",
"B c #8C52A3",
"V c #8D53A3",
"C c #8D56A3",
"Z c #8D55A4",
"A c #8F58A5",
"S c #915BA7",
"D c #925BA7",
"F c #9563AA",
"G c #9764AC",
"H c #9864AB",
"J c None",
/* pixels */
"JJJJJJJJJJJJJJJJJJJJJJJJJJJJ5XXXXXX<JJJJJJJJJJJJJJJJJJJJJJJJJJJJ",
"JJJJJJJJJJJJJJJJJJJJJJJJJJ=XXXXX@XXXXXJJJJJJJJJJJJJJJJJJJJJJJJJJ",
"JJJJJJJJJJJJJJJJJJJJJJJJJXXX,JJJJJJJXXXJJJJJJJJJJJJJJJJJJJJJJJJJ",
"JJJJJJJJJJJJJJJJJJJJJJJJXX&JJJJJJJJJJJXXJJJJJJJJJJJJJJJJJJJJJJJJ",
"JJJJJJJJJJJJJJJJJJJJJJJXXJJJJJJJJJJJJJJXXJJJJJJJJJJJJJJJJJJJJJJJ",
"JJJJJJJJJJJJJJJJJJJJJJXXJJJJJJJJJJJJJJJJXXJJJJJJJJJJJJJJJJJJJJJJ",
"JJJJJJJJJJJJJJJJJJJJJXXJJJJJJJJJJJJJJJJJJXXJJJJJJJJJJJJJJJJJJJJJ",
"JJJJJJJJJJJJJJJJJJJJXXJJJJJJJJJJJJJJJJJJJJXXJJJJJJJJJJJJJJJJJJJJ",
"JJJJJJJJJJJJJJJJJJJoXJJJJJJJJJJJJJJJJJJJJJJXXJJJJJJJJJJJJJJJJJJJ",
"JJJJJJJJJJJJJJJJJJJXXJJJJJJJJJJJJJJJJJJJJJJXXJJJJJJJJJJJJJJJJJJJ",
"JJJJJJJJJJJJJJJJJJXXJJJJJJJJJJJJJJJJJJJJJJJJXXJJJJJJJJJJJJJJJJJJ",
"JJJJJJJJJJJJJJJJJJX6JJJJJJJJJJJJJJJJJJJJJJJJJX*JJJJJJJJJJJJJJJJJ",
"JJJJJJJJJJJJJJJJJXXJJJJJJJJJJJJJJJJJJJJJJJJJJXXJJJJJJJJJJJJJJJJJ",
"JJJJJJJJJJJJJJJJ1XJJJJJJJJJJJJJJJJJJJJJJJJJJJJXoJJJJJJJJJJJJJJJJ",
"JJJJJJJJJJJJJJJJXXJJJJJJJJJJJJJJJJJJJJJJJJJJJJXXJJJJJJJJJJJJJJJJ",
"JJJJJJJJJJJJJJJJXJJJJJJJJJJJJJJJJJJJJJJJJJJJJJJX2JJJJJJJJJJJJJJJ",
"JJJJJJJJJJJJJJJXXJJJJJJJJJJJJJJJJJJJJJJJJJJJJJJXXJJJJJJJJJJJJJJJ",
"JJJJJJJJJJJJJJJXOJJJJJJJJJJJJJJJJJJJJJJJJJJJJJJJXJJJJJJJJJJJJJJJ",
"JJJJJJJJJJJJJJXXJJJJJJJJJJJJJJJJJJJJJJJJJJJJJJJJXXJJJJJJJJJJJJJJ",
"JJJJJJJJJJJJJJXXJJJJJJJJJJJJJJJJJJJJJJJJJJJJJJJJXXJJJJJJJJJJJJJJ",
"JJJJJJJJJJJJJJXJJJJJJJJJJJJJJJJJJJJJJJJJJJJJJJJJJXJJJJJJJJJJJJJJ",
"JJJJJJJJJJJJJXXJJJJJJJJJJJJJJJJJJJJJJJJJJJJJJJJJJXXJJJJJJJJJJJJJ",
"JJJJJJJJJJJJJXXJJJJJJJJJJJJJJJJJJJJJJJJJJJJJJJJJJXXJJJJJJJJJJJJJ",
"JJJJJJJJJJJJJXXJJJJJJJJJJJJJJJJJJJJJJJJJJJJJJJJJJ7XJJJJJJJJJJJJJ",
"JJJJJJJJJJJJJXJJJJJJJJJJJJJJJJJJJJJJJJJJJJJJJJJJJJXJJJJJJJJJJJJJ",
"JJJJJJJJJJJJ+XJJJJJJJJJJJJJJJJJJJJJJJJJJJJJJJJJJJJXXJJJJJJJJJJJJ",
"JJJJJJJJJJJJXXJJJJJJJJJJJJJJJJJJJJJJJJJJJJJJJJJJJJXXJJJJJJJJJJJJ",
"JJJJJJJJJJJJXXJJJJJJJJJJJJJJJJJJJJJJJJJJJJJJJJJJJJXXJJJJJJJJJJJJ",
"JJJJJJJJJJJJXXJJJJJJJJJJJJJJJJJJJJJJJJJJJJJJJJJJJJXXJJJJJJJJJJJJ",
"JJJJJJJJJJJJXXJJJJJJJJJJJJJJJJJJJJJJJJJJJJJJJJJJJJ&XJJJJJJJJJJJJ",
"JJJJJJJJJJJJXXJJJJJJJJJJJJJJJJJJJJJJJJJJJJJJJJJJJJ4XJJJJJJJJJJJJ",
"JJJJJJJJJJJJXXJJJJJJJJJJJJJJJJJJJJJJJJJJJJJJJJJJJJ9XJJJJJJJJJJJJ",
"JJJJJJJJJJJJXXJJJJJJJJJJJJJJJJJJJJJJJJJJJJJJJJJJJJXXJJJJJJJJJJJJ",
"JJJJJ0JJJJJJXXJJJJJJJJJJJJJJJJJJJJJJJJJJJJJJJJ .JJXXJJJJJJ0JJJJJ",
"JJJJJ0uJJJJJXXJJJJJJJJJJJJJJJJJJJJJJJJJJJJJJJJ JJJXXJJJJJ00JJJJJ",
"JJJJJe0JJJJJ:XJJJJJJJJJJJJJJJJJJJJJJJJJJJJJJJ  JJJXXJJJJJ0JJJJJJ",
"JJJJJJ0JJJJJJX;JJJJJJJJJJJJJJJJJJJJJJJJJJJJJJ  JJJXJJJJJe0JJJJJJ",
"JJJJJJ00JJJJJXXJJJJJJJJJJJJJJJJJJJJJJJJJJJJJ  JJJXXJJJJJ0fJJJJJJ",
"JJJJJJJ0JJJJJ3XJJJJJJJJJJJJJJJJJJJJJJJJJJJJJ  JJJXXJJJJa0JJJJJJJ",
"JJJJJJJ00JJJJJXXJJJJJJJJJJJJJJJJJJJJJJJJJJJ  JJJXXJJJJJ0NJJJJJJJ",
"JJJJJJJJ0xJJJJ2XJJJJJJJJJJJJJJJJJJJJJJJJJJ  JJJJXXJJJJ00JJJJJJJJ",
"JJJJJJJJi0JJJJJXXJJJJJJJJJJJJJJJJJJJJJJJJ  JJJJXXJJJJJ0JJJJJJJJJ",
"JJJJJJJJJ00JJJJJXXJJJJJJJJJJJJJJJJJJJJJ   JJJJXXJJJJJ00JJJJJJJJJ",
"JJJJJJ00JJ00JJJJJXXJJJJJJJJJJJJJJJJJJ    JJJJXX#JJJJ00JJ0JJJJJJJ",
"JJJJJJJ00JJ0JJJJJ+XXJJJJJJJJJJJJJ      JJJJJXXXJJJJ00JH0pJJJJJJJ",
"JJJJJJJJ00Jw0JJJJJ-XXJJJJJJJJJJJJ   JJJJJJJXXoJJJJV0Jr0DJJJJJJJJ",
"JJJJJJJJJr0l00JJJJJJXXXJJJJJJJJJJJJJJJJJJ%XXJJJJJF0G00JJJJJJJJJJ",
"JJJJJJJJJJJ0000JJJJJJXXX$JJJJJJJJJJJJJJ>XXXJJJJJg0Z00JJJJJJJJJJJ",
"0JJJJJJJJJJJ0000SJJJJJJXXXX2JJJJJJJJ8XXXXJJJJJJ00J00JJJJJJJJJJj0",
"00JJJJJJJJJJJ00z00JJJJJJJXXXXXXXXXXXXXXJJJJJJJ00r00JJJJJJJJJJ00k",
"Jd00JJJJJJJJJJa0000JJJJJJJJJJ@XXXXOJJJJJJJJJJ0000JJJJJJJJJJJ00JJ",
"JJJ00JJJJJJJJJJJ00000JJJJJJJJJJJJJJJJJJJJJJ00000JJJJJJJJJJJ00JJJ",
"JJJJ000JJJJJJJJJJe00000JJJJJJJJJJJJJJJJJJ00000JJJJJJJJJJJ000JJJJ",
"JJJJJJ00000CJJJJJJJ000000JJJJJJJJJJJJJc000000JJJJJJJv00000JJJJJJ",
"JJJJJJJj0000000hJJJJJ0000000nJJJJJJ00000000JJJJJ00000000JJJJJJJJ",
"JJJJJJJJJu000J00000000e000y00000000000000000000000J000JJJJJJJJJJ",
"JJJJJ00JJJJJ0000JJJg000000000000000000000000iJJJ0000JJJJ00JJJJJJ",
"JJJJJJ000JJJJJN000000JJJJJJJ0000000eJJJJJJn000000JJJJJ00eJJJJJJJ",
"JJJJJJJJ000bJJJJJJB000000000000nt000000000000JJJJJJJ000JJJJJJJJJ",
"JJJJJJJJJJ0000JJJJJJJJJJJJJJJJJJJJJJJJJJJJJJJJJJJ0000JJJJJJJJJJJ",
"JJJJJJJJJJJJJ0000JJJJJJJJJJJJJJJJJJJJJJJJJJJJJs000MJJJJJJJJJJJJJ",
"JJJJJJJJJJJJJJJJ00000mJJJJJJJJJJJJJJJJJJJJJ00000JJJJJJJJJJJJJJJJ",
"JJJJJJJJJJJJJJJJJJJA000000000JJJJJJq00000000JJJJJJJJJJJJJJJJJJJJ",
"JJJJJJJJJJJJJJJJJJJJJJJJJ00000000000000JJJJJJJJJJJJJJJJJJJJJJJJJ"
};
