/* XPM */
static char *result[] = {
/* columns rows colors chars-per-pixel */
"32 32 27 1 ",
"  c #FFE500",
". c #FFE60E",
"X c #F3EB27",
"o c #F3EB32",
"O c #F4EB32",
"+ c #F3EC32",
"@ c #F4ED37",
"# c #F3EE3D",
"$ c #F4EC3C",
"% c #F4ED49",
"& c #F4EF57",
"* c #7F3F98",
"= c #804098",
"- c #804099",
"; c #804199",
": c #814299",
"> c #81439A",
", c #84489D",
"< c #874B9E",
"1 c #894DA0",
"2 c #8A4FA1",
"3 c #8A50A1",
"4 c #8C54A3",
"5 c #8D54A3",
"6 c #9058A7",
"7 c #915AA7",
"8 c None",
/* pixels */
"88888888888888XXXX88888888888888",
"888888888888XX8888oX888888888888",
"88888888888X88888888X88888888888",
"8888888888X8888888888X8888888888",
"8888888888+8888888888#@888888888",
"888888888X888888888888X888888888",
"88888888X88888888888888X88888888",
"88888888X88888888888888X88888888",
"8888888O8888888888888888X8888888",
"8888888X8888888888888888X8888888",
"8888888X8888888888888888X8888888",
"888888$888888888888888888X888888",
"888888X888888888888888888X888888",
"888888X888888888888888888X888888",
"888888X888888888888888888X888888",
"888888X888888888888888888X888888",
"88*888X8888888888888888 8X888188",
"888888X8888888888888888 8X888888",
"888*88X888888888888888 88X88*888",
"8887888X88888888888888 8X8888888",
"8888*88X8888888888888 88X88*8888",
"888*8*88X8888888888  88X88*8*888",
"8888*,888X888888.  888X88-8*8888",
"88888**888XX88888888XX8853*88888",
"*88888*-=888XXX%&XXX888*8*88888*",
"8*888888**888888888888**888888*8",
"88>**8888***88888888***8888**888",
"8888*****88****6<****88*****8888",
"888*884**8888*****:8888**88**888",
"88888*88888>**8888**28888**88888",
"8888888***888888888888**;8888888",
"88888888888**********88888888888"
};
